<svg id="Layer_1" data-name="Layer 1" xmlns="http://www.w3.org/2000/svg" xmlns:xlink="http://www.w3.org/1999/xlink" viewBox="0 0 88.8 35.82"><defs><style>.cls-1,.cls-2{fill:none;}.cls-1{clip-rule:evenodd;}.cls-3{clip-path:url(#clip-path);}.cls-4{clip-path:url(#clip-path-2);}.cls-5{fill:#017DC1;}.cls-6{clip-path:url(#clip-path-3);}.cls-7{clip-path:url(#clip-path-5);}.cls-8{clip-path:url(#clip-path-7);}</style><clipPath id="clip-path" transform="translate(5 4.91)"><path class="cls-1" d="M9.91,6.57A9.78,9.78,0,0,0,0,16.21a9.78,9.78,0,0,0,9.91,9.64,9.78,9.78,0,0,0,9.91-9.64A9.78,9.78,0,0,0,9.91,6.57M9.91,21a4.82,4.82,0,1,1,0-9.64,4.82,4.82,0,1,1,0,9.64"></path></clipPath><clipPath id="clip-path-2" transform="translate(5 4.91)"><rect class="cls-2" x="-121" y="-359" width="1440" height="3536"></rect></clipPath><clipPath id="clip-path-3" transform="translate(5 4.91)"><path class="cls-1" d="M27.32,19.44a.88.88,0,0,1,1.5-.59c2.47,2.46,6.58,6.67,6.6,6.69a.65.65,0,0,0,.35.22,1.69,1.69,0,0,0,.42,0h4.47a.84.84,0,0,0,.67-1.36l-7.41-7.39-.39-.39c-.84-1-.75-1.36.21-2.35l5.89-6.36A.83.83,0,0,0,39,6.6h-4a1.43,1.43,0,0,0-.39,0,.83.83,0,0,0-.39.22l-5.27,5.52a.89.89,0,0,1-1.53-.58V.86a.78.78,0,0,0-.85-.77H23.16a.76.76,0,0,0-.86.7V25.05c0,.56.48.71.86.71h3.31a.79.79,0,0,0,.85-.73V19.44Z"></path></clipPath><clipPath id="clip-path-5" transform="translate(5 4.91)"><path class="cls-1" d="M54.36,24.93,54,21.7a.79.79,0,0,0-.92-.68,5.08,5.08,0,0,1-.77.06,4.89,4.89,0,0,1-4.94-4.56c0-.09,0-.17,0-.26V12.33a.91.91,0,0,1,.92-.93h4.44a.8.8,0,0,0,.78-.83V7.51a.83.83,0,0,0-.74-.91H48.32a.89.89,0,0,1-.94-.87V.85a.79.79,0,0,0-.86-.76h-3.3a.74.74,0,0,0-.81.74s0,15.61,0,15.7a9.79,9.79,0,0,0,9.92,9.38,10.17,10.17,0,0,0,1.32-.09.82.82,0,0,0,.72-.89"></path></clipPath><clipPath id="clip-path-7" transform="translate(5 4.91)"><path class="cls-1" d="M78.23,20.89c-2.81,0-3.23-1-3.23-4.64,0,0,0,0,0,0V7.42a.83.83,0,0,0-.86-.82H70.82a.85.85,0,0,0-.86.82v.41a10.08,10.08,0,0,0-4.89-1.26,9.78,9.78,0,0,0-9.91,9.64,9.78,9.78,0,0,0,9.91,9.64,10,10,0,0,0,6.44-2.31,5.4,5.4,0,0,0,4.77,2.31c.4,0,2.52.07,2.52-.89V21.53a.62.62,0,0,0-.57-.64M65.08,21a4.82,4.82,0,1,1,5-4.82,4.89,4.89,0,0,1-5,4.82"></path></clipPath></defs><title>okta_logo</title><g class="cls-3"><g class="cls-4"><rect class="cls-5" y="6.48" width="29.82" height="29.28"></rect></g></g><g class="cls-6"><g class="cls-4"><rect class="cls-5" x="22.3" width="29.22" height="35.71"></rect></g></g><g class="cls-7"><g class="cls-4"><rect class="cls-5" x="42.4" width="21.96" height="35.82"></rect></g></g><g class="cls-8"><g class="cls-4"><rect class="cls-5" x="55.17" y="6.48" width="33.64" height="29.28"></rect></g></g></svg>
