<?xml version="1.0" encoding="UTF-8"?>
<svg width="1000px" height="123px" viewBox="0 0 1000 123" version="1.1" xmlns="http://www.w3.org/2000/svg" xmlns:xlink="http://www.w3.org/1999/xlink">
    <!-- Generator: Sketch 41.2 (35397) - http://www.bohemiancoding.com/sketch -->
    <title>glynde-labs</title>
    <desc>Created with Sketch.</desc>
    <defs></defs>
    <g id="Logo" stroke="none" stroke-width="1" fill="none" fill-rule="evenodd">
        <g id="glynde-labs" fill="#FFFFFF">
            <path d="M72.9964267,25.693381 C70.3873728,19.1140276 66.7007215,14.0377922 61.9363621,10.4645227 C57.1720027,6.89125319 49.7419823,5.10464523 39.6460779,5.10464523 C34.0876587,5.10464523 29.3233708,5.81361664 25.3530713,7.23158074 C21.3827718,8.64954484 17.8095559,11.0600476 14.6333163,14.4631615 C11.4570767,17.8662753 9.07493279,22.7723575 7.486813,29.1815552 C5.89869321,35.5907529 5.10464523,43.5028739 5.10464523,52.9181555 L5.10464523,69.5933299 C5.10464523,79.0086115 5.89869321,86.9207325 7.486813,93.3299302 C9.07493279,99.739128 11.4570767,104.64521 14.6333163,108.048324 C17.8095559,111.451438 21.3827718,113.861941 25.3530713,115.279905 C29.3233708,116.697869 34.0876587,117.40684 39.6460779,117.40684 C49.8554194,117.40684 57.9660524,115.223208 63.9782202,110.855879 C69.990388,106.488549 72.9964267,101.809338 72.9964267,96.8181045 L72.9964267,68.0619364 L52.0673813,68.0619364 L52.0673813,62.9572911 L79.122001,62.9572911 L79.122001,95.1165561 C79.122001,102.716844 75.6905794,109.182663 68.8276331,114.514208 C61.9646869,119.845753 52.2375991,122.511485 39.6460779,122.511485 C25.6933112,122.511485 15.5975583,118.229298 9.35851625,109.664795 C3.11947422,101.100292 9.9475983e-14,87.7432704 9.9475983e-14,69.5933299 L9.9475983e-14,52.9181555 C9.9475983e-14,34.7682151 3.11947422,21.4111936 9.35851625,12.8466905 C15.5975583,4.28218734 25.6933112,0 39.6460779,0 C50.8763536,0 59.2705751,2.07019653 64.8289944,6.21065169 C70.3874136,10.3511069 74.6979598,16.2213902 77.7607623,23.8216777 L72.9964267,25.693381 Z M179.513357,115.705292 L179.513357,120.809937 L108.388634,120.809937 L108.388634,1.70154841 L113.493279,1.70154841 L113.493279,115.705292 L179.513357,115.705292 Z M204.696274,1.70154841 L273.608984,1.70154841 L231.070274,69.7634848 L231.070274,120.809937 L225.965629,120.809937 L225.965629,69.7634848 L183.426918,1.70154841 L189.382338,1.70154841 L228.517951,64.148375 L264.420623,6.80619364 L204.696274,6.80619364 L204.696274,1.70154841 Z M305.08763,115.705292 L357.83563,115.705292 L296.920197,10.3794453 L296.920197,120.809937 L291.815552,120.809937 L291.815552,1.70154841 L297.770972,1.70154841 L361.408882,111.79173 L361.408882,1.70154841 L366.513527,1.70154841 L366.513527,120.809937 L305.08763,120.809937 L305.08763,115.705292 Z M416.539051,120.809937 L400.204186,120.809937 L400.204186,1.70154841 L416.539051,1.70154841 C432.873997,1.70154841 446.713119,7.713626 458.056832,19.7379615 C469.400544,31.7622971 475.072316,45.6014191 475.072316,61.2557427 C475.072316,76.9100664 469.400544,90.7491884 458.056832,102.773524 C446.713119,114.797859 432.873997,120.809937 416.539051,120.809937 L416.539051,120.809937 Z M416.539051,115.705292 C431.399314,115.705292 444.019005,110.232032 454.398503,99.2853497 C464.778,88.3386668 469.967671,75.662258 469.967671,61.2557427 C469.967671,46.8492275 464.778,34.1728186 454.398503,23.2261358 C444.019005,12.279453 431.399314,6.80619364 416.539051,6.80619364 L405.308831,6.80619364 L405.308831,115.705292 L416.539051,115.705292 Z M562.191594,58.5332653 L511.655607,58.5332653 L563.722988,6.80619364 L506.210652,6.80619364 L506.210652,115.705292 L572.23073,115.705292 L572.23073,120.809937 L501.106006,120.809937 L501.106006,1.70154841 L576.144291,1.70154841 L524.07691,53.42862 L562.191594,53.42862 L562.191594,58.5332653 Z M720.435596,115.705292 L720.435596,120.809937 L649.310873,120.809937 L649.310873,1.70154841 L654.415518,1.70154841 L654.415518,115.705292 L720.435596,115.705292 Z M742.896035,115.705292 L805.513017,115.705292 L769.440191,16.5050196 L731.495661,120.809937 L726.050706,120.809937 L769.440191,1.53139357 L812.829675,120.809937 L742.896035,120.809937 L742.896035,115.705292 Z M859.962566,120.809937 L832.737791,120.809937 L832.737791,1.70154841 L853.496682,1.70154841 C868.470383,1.70154841 879.757208,4.4523575 887.357495,9.95405819 C894.957783,15.4557589 898.75787,23.1977267 898.75787,33.180194 C898.75787,44.5239068 893.993582,52.8614106 884.464863,58.1929556 C898.304193,63.4110635 905.223754,73.2232278 905.223754,87.6297431 C905.223754,97.8390846 901.480385,105.921359 893.993534,111.876808 C886.506684,117.832257 875.163141,120.809937 859.962566,120.809937 L859.962566,120.809937 Z M859.962566,115.705292 C865.294111,115.705292 870.171834,115.279909 874.595882,114.429131 C879.01993,113.578352 883.2454,112.160409 887.272418,110.175259 C891.299436,108.19011 894.447269,105.269148 896.716012,101.412285 C898.984754,97.5554228 900.119108,92.9612881 900.119108,87.6297431 C900.119108,75.4919704 894.277184,67.267902 882.59316,62.9572911 L872.383869,59.2138846 L881.91254,53.7689297 C889.739702,49.4583189 893.653224,42.5954756 893.653224,33.180194 C893.653224,15.5974392 880.267844,6.80619364 853.496682,6.80619364 L837.842437,6.80619364 L837.842437,115.705292 L859.962566,115.705292 Z M927.684193,31.1383359 C927.684193,20.1349345 930.463361,12.1944547 936.02178,7.31665816 C941.580199,2.43886166 950.598315,0 963.0764,0 C971.811058,0 978.844055,2.26870852 984.1756,6.80619364 C989.507145,11.3436787 993.363949,18.2632397 995.746129,27.5650842 L979.921729,39.4759231 L971.584142,39.4759231 L989.960864,25.693381 C987.578685,18.0930934 984.147263,12.7616284 979.666497,9.69882593 C975.18573,6.63602348 969.655753,5.10464523 963.0764,5.10464523 C958.538914,5.10464523 954.710469,5.38823379 951.590948,5.95541943 C948.471427,6.52260507 945.351953,7.62860048 942.232432,9.27343883 C939.11291,10.9182772 936.759125,13.5556508 935.171006,17.1856389 C933.582886,20.815627 932.788838,25.4664795 932.788838,31.1383359 C932.788838,36.1295695 935.085905,40.5535511 939.680109,44.4104135 C944.274313,48.2672758 949.861007,51.5569032 956.440361,54.2793942 C963.019714,57.0018853 969.627328,59.7810533 976.2634,62.6169815 C982.899472,65.4529096 988.514525,69.0828433 993.108729,73.5068913 C997.702933,77.9309393 1000,83.0355334 1000,88.820827 C1000,100.16454 997.192473,108.615479 991.577335,114.173898 C985.962198,119.732318 976.348545,122.511485 962.73609,122.511485 C951.619251,122.511485 942.884723,120.271136 936.532244,115.790369 C930.179765,111.309603 925.812501,104.361683 923.430322,94.9464012 L928.194657,92.9045431 C930.4634,102.09295 934.348563,108.473693 939.850264,112.046963 C945.351964,115.620232 952.980497,117.40684 962.73609,117.40684 C973.626054,117.40684 981.708328,115.308285 986.983155,111.111111 C992.257981,106.913937 994.895355,99.483917 994.895355,88.820827 C994.895355,83.8295933 992.598287,79.4056117 988.004084,75.5487494 C983.40988,71.691887 977.794826,68.4022597 971.158754,65.6797686 C964.522682,62.9572775 957.915069,60.1781096 951.335716,57.3421814 C944.756362,54.5062532 939.169667,50.8763196 934.575464,46.4522716 C929.98126,42.0282236 927.684193,36.9236294 927.684193,31.1383359 L927.684193,31.1383359 Z" id="GLYNDE-LABS"></path>
        </g>
    </g>
</svg>