<?xml version="1.0" encoding="utf-8"?>
<!-- Generator: Adobe Illustrator 23.0.1, SVG Export Plug-In . SVG Version: 6.00 Build 0)  -->
<svg version="1.1" id="Layer_1" xmlns="http://www.w3.org/2000/svg" xmlns:xlink="http://www.w3.org/1999/xlink" x="0px" y="0px"
	 viewBox="0 0 2500 2353" style="enable-background:new 0 0 2500 2353;" xml:space="preserve">
<style type="text/css">
	.st0{fill:url(#SVGID_1_);}
	.st1{fill:url(#SVGID_2_);}
	.st2{fill:#14559A;}
	.st3{fill:url(#SVGID_3_);}
	.st4{fill:#3092C4;}
	.st5{fill:#1969BC;}
	.st6{fill:url(#SVGID_4_);}
	.st7{fill:url(#SVGID_5_);}
	.st8{fill:url(#SVGID_6_);}
	.st9{fill:#2B74B1;}
	.st10{fill:#125A9E;}
	.st11{fill:url(#SVGID_7_);}
	.st12{fill:url(#SVGID_8_);}
	.st13{fill:#0D82CA;}
	.st14{fill:url(#SVGID_9_);}
	.st15{fill:#127BCA;}
	.st16{fill:url(#SVGID_10_);}
	.st17{fill:url(#SVGID_11_);}
	.st18{fill:#05A1E6;}
	.st19{fill:url(#SVGID_12_);}
	.st20{fill:url(#SVGID_13_);}
	.st21{fill:url(#SVGID_14_);}
	.st22{fill:#079AE1;}
	.st23{fill:#1E5CB3;}
	.st24{fill:#1D60B5;}
	.st25{fill:#175FAB;}
	.st26{fill:url(#SVGID_15_);}
	.st27{fill:#7DCBEC;}
	.st28{fill:#5EC5ED;}
	.st29{fill:url(#SVGID_16_);}
	.st30{fill:url(#SVGID_17_);}
	.st31{fill:url(#SVGID_18_);}
</style>
<g>
	
		<linearGradient id="SVGID_1_" gradientUnits="userSpaceOnUse" x1="1704.6652" y1="12.9192" x2="1704.6652" y2="14.4107" gradientTransform="matrix(445.3907 0 0 794.2871 -758147.0625 -9546.8516)">
		<stop  offset="0" style="stop-color:#0994DC"/>
		<stop  offset="0.35" style="stop-color:#66CEF5"/>
		<stop  offset="0.35" style="stop-color:#66CEF5"/>
		<stop  offset="0.8462" style="stop-color:#127BCA"/>
		<stop  offset="0.8462" style="stop-color:#127BCA"/>
		<stop  offset="1" style="stop-color:#127BCA"/>
	</linearGradient>
	<path class="st0" d="M872.2,902.2c89.5,273.7,123.4,761.9,385.1,761.9c19.9,0,40.1-2,60.3-5.8c-237.9-55.5-266.1-538.4-411.3-788.5
		C894.7,880.4,883.3,891.2,872.2,902.2"/>
	
		<linearGradient id="SVGID_2_" gradientUnits="userSpaceOnUse" x1="1704.8463" y1="12.9532" x2="1704.8463" y2="14.4447" gradientTransform="matrix(467.4707 0 0 814.5215 -795825.6875 -9865.9824)">
		<stop  offset="0" style="stop-color:#0E76BC"/>
		<stop  offset="0.36" style="stop-color:#36AEE8"/>
		<stop  offset="0.36" style="stop-color:#36AEE8"/>
		<stop  offset="0.8462" style="stop-color:#00ADEF"/>
		<stop  offset="0.8462" style="stop-color:#00ADEF"/>
		<stop  offset="1" style="stop-color:#00ADEF"/>
	</linearGradient>
	<path class="st1" d="M906.3,869.8c145.2,250.1,173.4,733,411.3,788.5c18.7-3.4,37.4-8.6,56.2-15.2
		c-213.6-104.6-272.6-573.6-437.5-799.3C926.1,852.3,916.1,861,906.3,869.8"/>
	<path class="st2" d="M1115.4,721.1c-19.9,0-40.1,2-60.3,5.8c-53,10-106.8,32.8-161,67.3c14.8,14.6,28.9,31.3,42.2,49.6
		c55.2-45.8,110-79.6,164.6-99.9c19.9-7.5,40.5-13.2,61.4-17.1C1146.9,722.9,1131.2,721,1115.4,721.1"/>
	
		<linearGradient id="SVGID_3_" gradientUnits="userSpaceOnUse" x1="1704.6522" y1="14.2749" x2="1704.6522" y2="13.1035" gradientTransform="matrix(443.8769 0 0 825.1953 -755271.5 -10142.832)">
		<stop  offset="0" style="stop-color:#1C63B7"/>
		<stop  offset="0.5" style="stop-color:#33BDF2"/>
		<stop  offset="1" style="stop-color:#33BDF2;stop-opacity:0.42"/>
	</linearGradient>
	<path class="st3" d="M1540.4,1546.7c22.8-18.2,44.7-37.4,65.7-57.5c-90.9-272.4-123.5-767.6-387-767.6c-18.8,0-37.9,1.8-56.8,5.3
		C1402.3,786.5,1433,1308.8,1540.4,1546.7"/>
	<path class="st4" d="M1162.2,726.8c-15.3-3.8-31-5.8-46.8-5.7l103.6,0.4C1200.2,721.4,1181.2,723.2,1162.2,726.8"/>
	<path class="st5" d="M1535.8,1604.6c-10.3-9.8-20.1-20.6-29.7-32.1c-44.3,31.4-88.5,55.2-132.4,70.7c15.7,7.7,32.3,13.3,49.4,16.8
		c13.8,2.8,27.9,4.2,42.1,4.2c49.2,0,88.2-5.8,121.3-21.7C1568.2,1632.5,1551.5,1619.7,1535.8,1604.6"/>
	
		<linearGradient id="SVGID_4_" gradientUnits="userSpaceOnUse" x1="1704.6141" y1="13.0024" x2="1704.6141" y2="14.4938" gradientTransform="matrix(439.5606 0 0 845.6836 -747960.625 -10434.2422)">
		<stop  offset="0" style="stop-color:#166AB8"/>
		<stop  offset="0.4" style="stop-color:#36AEE8"/>
		<stop  offset="0.4" style="stop-color:#36AEE8"/>
		<stop  offset="0.8462" style="stop-color:#0798DD"/>
		<stop  offset="0.8462" style="stop-color:#0798DD"/>
		<stop  offset="1" style="stop-color:#0798DD"/>
	</linearGradient>
	<path class="st6" d="M1100.8,743.9c215,112.5,233.7,621.8,405.3,828.6c11.7-8.2,23.1-16.8,34.3-25.8
		c-107.4-237.9-138.1-760.3-378.1-819.9C1141.3,730.7,1120.8,736.4,1100.8,743.9"/>
	
		<linearGradient id="SVGID_5_" gradientUnits="userSpaceOnUse" x1="1705.5026" y1="13.0789" x2="1705.5026" y2="14.5704" gradientTransform="matrix(569.834 0 0 899.2383 -970632.125 -11192.627)">
		<stop  offset="0" style="stop-color:#124379"/>
		<stop  offset="0.39" style="stop-color:#1487CB"/>
		<stop  offset="0.39" style="stop-color:#1487CB"/>
		<stop  offset="0.7802" style="stop-color:#165197"/>
		<stop  offset="0.7802" style="stop-color:#165197"/>
		<stop  offset="1" style="stop-color:#165197"/>
	</linearGradient>
	<path class="st7" d="M936.3,843.8c164.9,225.8,223.9,694.7,437.4,799.3c43.9-15.5,88.1-39.3,132.4-70.7
		c-171.6-206.8-190.3-716.1-405.3-828.6C1046.3,764.2,991.5,798,936.3,843.8"/>
	
		<linearGradient id="SVGID_6_" gradientUnits="userSpaceOnUse" x1="1698.993" y1="11.3846" x2="1699.9929" y2="11.3846" gradientTransform="matrix(189.6387 0 0 301.9629 -321512.3438 -2457.6594)">
		<stop  offset="0" style="stop-color:#33BDF2;stop-opacity:0.698"/>
		<stop  offset="1" style="stop-color:#1DACD8"/>
	</linearGradient>
	<path class="st8" d="M766.7,895.6c-25.8,58.4-52.2,135.2-84.2,235.5c63.5-89.4,126.7-166.5,189.6-228.9c-8.7-26.6-18-51.2-28-73.1
		C817.2,849.8,791.3,872,766.7,895.6"/>
	<path class="st9" d="M867.1,812.2c-7.7,5.5-15.4,11.1-22.9,16.9c10,21.9,19.3,46.4,28,73.1c11.2-11,22.5-21.8,34.1-32.4
		C894.1,848.9,881.1,829.6,867.1,812.2"/>
	<path class="st10" d="M894.1,794.2c-9.2,5.8-18.2,11.8-27.1,18c14.1,17.3,27,36.7,39.2,57.6c9.8-8.9,19.8-17.6,30-26.1
		C923.1,825.5,909,808.8,894.1,794.2"/>
	
		<linearGradient id="SVGID_7_" gradientUnits="userSpaceOnUse" x1="1706.2898" y1="14.3017" x2="1706.2898" y2="13.3246" gradientTransform="matrix(772.8809 0 0 963.6634 -1316652.375 -12169.4561)">
		<stop  offset="0" style="stop-color:#136AB4"/>
		<stop  offset="0.6" style="stop-color:#59CAF5;stop-opacity:0.549"/>
		<stop  offset="1" style="stop-color:#59CAF5;stop-opacity:0.235"/>
	</linearGradient>
	<path class="st11" d="M2360.8,700.2c-121.6,469-375.6,845.7-588.6,940.7h-0.4c-3.9,1.8-7.7,3.4-11.5,4.9c-0.5,0.3-1,0.4-1.4,0.5
		c-1.1,0.4-2.1,0.8-3.3,1.2c-0.5,0.3-1,0.4-1.5,0.6c-1.8,0.6-3.6,1.2-5.3,1.9c-0.8,0.3-1.5,0.5-2.2,0.8c-0.9,0.3-1.7,0.6-2.6,0.9
		c-0.8,0.3-1.6,0.5-2.6,0.9c-0.8,0.3-1.6,0.4-2.3,0.8c-1.6,0.4-3,0.8-4.6,1.4c-0.6,0-1.2,0.4-1.9,0.5c-1,0.3-2.1,0.5-3.1,0.8
		c-0.7,0.3-1.3,0.4-2.1,0.6c-1.1,0.3-2.3,0.6-3.4,0.9l-4.1,0.9c9.8,3.6,20.1,5.4,30.5,5.4c201.9,0,405.5-361.9,742.4-963.7h-132.3
		L2360.8,700.2L2360.8,700.2z"/>
	
		<linearGradient id="SVGID_8_" gradientUnits="userSpaceOnUse" x1="1705.5717" y1="13.8604" x2="1706.5718" y2="13.8604" gradientTransform="matrix(703.3398 0 0 968.3691 -1199586.75 -12216.7256)">
		<stop  offset="0" style="stop-color:#05A1E6;stop-opacity:0.247"/>
		<stop  offset="1" style="stop-color:#05A1E6"/>
	</linearGradient>
	<path class="st12" d="M638.7,740.1c0.1,0,0.3-0.3,0.4-0.3c0.2,0,0.4,0,0.5-0.3h0.3c1.1-0.4,2.1-0.8,3.3-1.2c0.3,0,0.4,0,0.6-0.3
		c0.3,0,0.6-0.3,0.8-0.4c1.2-0.4,2.4-0.8,3.5-1.2h0.2c2.7-0.8,5.2-1.8,7.7-2.7c0.4,0,0.7-0.3,1.2-0.3c1.1-0.4,2.2-0.7,3.3-1
		c0.5-0.3,1-0.3,1.5-0.5c1.2-0.3,2.3-0.7,3.3-1c0.5,0,0.9-0.3,1.3-0.4c3.7-1,7.4-2,11.1-2.9c0.5,0,1-0.3,1.5-0.4
		c1.1-0.3,2.1-0.5,3.2-0.6c0.5-0.3,1-0.3,1.6-0.5c1.1-0.3,2.1-0.4,3.3-0.6h0.8c2.2-0.5,4.5-0.8,6.8-1.2h1.4c1.1-0.3,2-0.4,3.1-0.5
		c0.6,0,1.2-0.3,1.8-0.3c1,0,2-0.3,3-0.4c0.5,0,1,0,1.6-0.3c2.4-0.3,4.8-0.4,7.3-0.6c-7.1-0.7-14.3-1.1-21.5-1.1
		c-227.4,0-540.7,421.9-681.9,968.4h27.2c45.2-80.5,85.7-156.7,122.9-228.3C258.5,1073.9,459.9,810,638.7,740.1"/>
	<path class="st13" d="M766.7,895.6c24.6-23.5,50.5-45.7,77.5-66.5c-5.5-12.2-11.6-24.1-18.4-35.7
		C804.9,818.7,785.9,852,766.7,895.6"/>
	<path class="st13" d="M785.4,743.3c14.8,12.5,28.2,29.6,40.3,50.1c3.8-4.7,7.7-9.1,11.7-13.1c-16.9-15.8-35.1-28.7-55-38.5
		c0.8,0.4,1.6,0.8,2.4,1.2C784.9,743,785.2,743.3,785.4,743.3"/>
	
		<linearGradient id="SVGID_9_" gradientUnits="userSpaceOnUse" x1="1704.9343" y1="14.2184" x2="1704.9343" y2="12.881" gradientTransform="matrix(479.0137 0 0 720.9277 -816287.75 -8614.1387)">
		<stop  offset="0" style="stop-color:#318ED5"/>
		<stop  offset="1" style="stop-color:#38A7E4"/>
	</linearGradient>
	<path class="st14" d="M159.7,1461c207.3-399.6,305.6-652.5,479-720.9C459.9,810.1,258.5,1074,159.7,1461"/>
	<path class="st15" d="M837.4,780.3c-4,4.1-7.9,8.4-11.7,13.1c6.8,11.5,13,23.4,18.5,35.7c7.5-5.7,15.2-11.4,22.9-16.8
		C857.9,800.9,848,790.2,837.4,780.3"/>
	
		<linearGradient id="SVGID_10_" gradientUnits="userSpaceOnUse" x1="1704.6648" y1="13.4469" x2="1704.6648" y2="11.7671" gradientTransform="matrix(445.3516 0 0 557.8906 -758715.3125 -5862.1987)">
		<stop  offset="0" style="stop-color:#05A1E6"/>
		<stop  offset="1" style="stop-color:#05A1E6;stop-opacity:0.549"/>
	</linearGradient>
	<path class="st16" d="M253.8,1687.5c-1.3,0.3-2.6,0.3-3.8,0.4h-0.7c-1.1,0-2.2,0.3-3.2,0.3h-0.5c-2.6,0.3-5.2,0.3-7.6,0.5h-0.8
		c209.9-5.9,305.8-110.9,353.4-263.3c36.2-115.5,65.9-212.9,91.9-294.5c-87.9,123.7-176.2,271.2-265,436.4
		c-42.8,79.6-107.9,112.9-163.8,120"/>
	
		<linearGradient id="SVGID_11_" gradientUnits="userSpaceOnUse" x1="1705.1698" y1="14.1103" x2="1705.1698" y2="13.1104" gradientTransform="matrix(512.8906 0 0 791.9336 -874055.375 -9487.0762)">
		<stop  offset="0" style="stop-color:#1959A6"/>
		<stop  offset="0.5" style="stop-color:#05A1E6"/>
		<stop  offset="0.5" style="stop-color:#05A1E6"/>
		<stop  offset="0.9176" style="stop-color:#7EC5EA"/>
		<stop  offset="1" style="stop-color:#7EC5EA"/>
	</linearGradient>
	<path class="st17" d="M253.8,1687.4c55.8-7.1,120.9-40.3,163.7-120c88.8-165.2,177.1-312.7,264.9-436.4
		c32-100.3,58.3-177.1,84.2-235.5C591.6,1062.1,415.9,1339.2,253.8,1687.4"/>
	<path class="st18" d="M159.7,1461c-37.1,71.5-77.7,147.7-122.9,228.3h79.1C125.9,1612.4,140.5,1536.2,159.7,1461"/>
	
		<linearGradient id="SVGID_12_" gradientUnits="userSpaceOnUse" x1="1706.1917" y1="14.3042" x2="1705.9783" y2="13.416" gradientTransform="matrix(709.7363 0 0 966.8456 -1210405.5 -12193.0869)">
		<stop  offset="0" style="stop-color:#165096"/>
		<stop  offset="1" style="stop-color:#0D82CA"/>
	</linearGradient>
	<path class="st19" d="M705.7,722.8c-0.6,0-1.1,0.3-1.7,0.3c-1,0.3-2,0.3-3,0.4c-0.6,0-1.2,0-1.8,0.3c-1.1,0.3-2.1,0.3-3.1,0.5
		c-0.5,0-1,0-1.4,0.3c-2.3,0.4-4.5,0.8-6.7,1.2h-0.8c-1.2,0.3-2.2,0.5-3.3,0.6c-0.6,0.3-1.1,0.3-1.6,0.4c-1.1,0.3-2.1,0.4-3.2,0.6
		c-0.6,0.3-1,0.3-1.5,0.3c-3.7,0.9-7.4,1.9-11.1,2.9c-0.4,0-0.8,0.3-1.3,0.4c-1.1,0.3-2.2,0.6-3.4,1c-0.5,0.3-1,0.3-1.5,0.4
		c-1.1,0.3-2.2,0.6-3.3,1c-0.4,0-0.8,0.3-1.2,0.3c-2.6,1-5.1,1.9-7.7,2.7c-1.1,0.4-2.3,0.8-3.5,1.2c-0.5,0.3-0.9,0.4-1.5,0.6
		c-1.1,0.4-2.2,0.8-3.3,1.2c-0.4,0.3-0.8,0.4-1.1,0.5c-173.4,68.5-271.7,321.3-479,720.9c-19.2,75.1-33.8,151.4-43.7,228.3h11.1
		c31.3,0,40.1-0.3,76.1-0.3h34.9c2.5-0.3,5-0.3,7.6-0.5h0.5c1.1,0,2.1-0.3,3.2-0.3h0.8c1.2,0,2.5-0.3,3.8-0.4
		c162.1-348.2,337.8-625.2,512.9-791.9c19.2-43.6,38.2-76.9,59-102.1c-12.1-20.5-25.4-37.7-40.3-50.2c0,0-0.4,0-0.4-0.3
		c-0.8-0.3-1.6-0.8-2.5-1.2c-0.8-0.5-1.6-0.8-2.4-1.2c-0.8-0.3-1.6-0.7-2.4-1.2c-1-0.3-1.9-0.8-2.8-1.2c-0.8-0.3-1.4-0.6-2.2-1
		c-1.5-0.6-3.1-1.2-4.6-1.9c-0.7-0.3-1.3-0.5-2-0.7c-1.2-0.4-2.3-0.9-3.4-1.4c-0.6-0.3-1.2-0.4-1.8-0.6c-1.6-0.5-3.2-1.1-4.7-1.6
		H756c-1.8-0.6-3.6-1.1-5.5-1.6c-0.4-0.3-0.8-0.3-1.2-0.4c-1.6-0.4-3.1-0.9-4.6-1.3c-0.4,0-0.8-0.3-1.1-0.3c-3.8-1-7.7-1.8-11.6-2.5
		c-0.4,0-0.8-0.3-1.2-0.3c-1.7-0.3-3.3-0.6-5-0.8c-0.4-0.3-0.6-0.3-1-0.3c-2-0.3-3.9-0.6-5.9-0.8h-1c-1.6-0.3-3.1-0.3-4.6-0.5
		c-2.5,0.3-4.9,0.4-7.3,0.7"/>
	
		<linearGradient id="SVGID_13_" gradientUnits="userSpaceOnUse" x1="1703.1625" y1="13.3082" x2="1703.1625" y2="12.5052" gradientTransform="matrix(319.9902 0 0 558.8477 -543049.8125 -6286.0337)">
		<stop  offset="0" style="stop-color:#05A1E6"/>
		<stop  offset="0.8736" style="stop-color:#0495D6"/>
		<stop  offset="1" style="stop-color:#0495D6"/>
	</linearGradient>
	<path class="st20" d="M1885.8,959.9c-39.9,127.8-72.2,233.2-100.3,320c109.5-150.6,217.3-340.2,320-558.8
		C1985.7,758.6,1921.8,844.7,1885.8,959.9"/>
	
		<linearGradient id="SVGID_14_" gradientUnits="userSpaceOnUse" x1="1705.7506" y1="13.2857" x2="1705.4407" y2="14.3856" gradientTransform="matrix(588.5743 0 0 940.6543 -1001804.625 -11836.1113)">
		<stop  offset="0" style="stop-color:#38A7E4;stop-opacity:0.329"/>
		<stop  offset="0.9615" style="stop-color:#0E88D3"/>
		<stop  offset="0.9615" style="stop-color:#0E88D3"/>
		<stop  offset="1" style="stop-color:#0E88D3"/>
	</linearGradient>
	<path class="st21" d="M1788.9,1632.9c-5.6,2.9-11.2,5.6-16.7,8c213-95,467-471.7,588.6-940.7h-24.6
		C2056.8,1199.3,1966.9,1533.5,1788.9,1632.9"/>
	<path class="st22" d="M1649.9,1591c46.3-56.6,84.1-152.7,135.6-311.1c-59.4,81.6-119.3,151.8-179.1,209c0,0.3,0,0.3-0.3,0.5
		c13.1,39.1,27.4,73.7,43.7,101.6"/>
	<path class="st5" d="M1649.9,1591c-15.8,19.2-32.5,33.9-51,44.8c-4.1,2.4-8.2,4.6-12.4,6.6c20.2,10.9,42.2,17.9,65,20.5
		c3.5,0.4,7,0.7,10.6,0.9h0.6c1.6,0,3.3,0,5.1,0.3h17.3c0.6,0,1.3,0,1.9-0.3c1.2,0,2.5,0,3.8-0.3h1.9c1.3,0,2.7-0.3,4.2-0.4h0.3
		c0.4,0,0.9-0.3,1.3-0.3c1.5-0.3,3-0.4,4.4-0.7h1.3c1.6-0.3,3.3-0.5,5-0.8h0.8c3.3-0.6,6.6-1.3,9.9-2.1
		c-27.5-10.1-50.5-33.8-70.3-67.6"/>
	<path class="st23" d="M1257.3,1664.1c19.9,0,40.1-2,60.3-5.8c18.7-3.4,37.4-8.6,56.2-15.1c15.7,7.7,32.2,13.3,49.3,16.8
		c13.9,2.8,28,4.2,42.1,4.2L1257.3,1664.1L1257.3,1664.1z"/>
	<path class="st23" d="M1465.2,1664.1c49.2,0,88.2-5.8,121.3-21.7c20.2,10.9,42.2,17.9,65,20.5c3.5,0.3,7,0.7,10.6,0.9h0.6
		c1.6,0,3.3,0,5.1,0.3h6H1465L1465.2,1664.1L1465.2,1664.1z"/>
	<path class="st24" d="M1673.9,1664.1h11.4c0.7,0,1.3,0,2-0.3c1.2,0,2.5,0,3.9-0.3h1.9c1.3,0,2.7-0.3,4.1-0.4h0.4
		c0.4,0,0.8-0.3,1.2-0.3c1.5-0.3,3-0.4,4.4-0.7c0.5,0,0.9,0,1.4-0.3c1.6-0.3,3.3-0.5,5-0.8h0.8c3.3-0.6,6.6-1.3,9.9-2.1
		c9.8,3.6,20.1,5.4,30.5,5.4l-76.8,0.3L1673.9,1664.1z"/>
	<path class="st25" d="M1606.2,1489.4v-0.3c-21,20.2-42.9,39.4-65.7,57.5c-11.2,8.9-22.6,17.5-34.3,25.8
		c9.6,11.5,19.4,22.3,29.7,32.1c15.7,15.2,32.4,27.9,50.6,37.8c4.2-2.1,8.3-4.3,12.3-6.6c18.6-10.9,35.3-25.5,51.1-44.8
		C1633.6,1563.1,1619.3,1528.5,1606.2,1489.4"/>
	
		<linearGradient id="SVGID_15_" gradientUnits="userSpaceOnUse" x1="1706.0115" y1="13.3454" x2="1706.0115" y2="14.3671" gradientTransform="matrix(686.3376 0 0 958.1152 -1168906.875 -12089.001)">
		<stop  offset="0" style="stop-color:#168CD4"/>
		<stop  offset="0.5" style="stop-color:#1C87CC"/>
		<stop  offset="1" style="stop-color:#154B8D"/>
	</linearGradient>
	<path class="st26" d="M2258.1,700.2h-124c-6.7,0.3-13.2,0.5-19.6,1c-3,6.5-6.2,13-9.2,19.6c-102.7,218.7-210.5,408.2-320,558.8
		c-51.5,158.4-89.3,254.6-135.6,311.1c19.8,33.8,42.9,57.5,70.2,67.6c0.8-0.3,1.4-0.3,2.2-0.5h0.4c0.5,0,1-0.3,1.5-0.3
		c1.1-0.3,2.3-0.5,3.4-0.9c0.7-0.3,1.3-0.4,2-0.6c1-0.3,2.1-0.5,3.1-0.8c0.6-0.3,1.3-0.4,1.9-0.5c1.6-0.5,3-0.9,4.6-1.4
		c0.7-0.3,1.5-0.6,2.3-0.8c0.9-0.3,1.8-0.5,2.6-0.9c0.9-0.3,1.8-0.5,2.6-0.8c0.7-0.3,1.5-0.5,2.1-0.8c1.8-0.6,3.6-1.2,5.4-1.9
		c0.5,0,1-0.4,1.5-0.5c1.1-0.4,2.2-0.8,3.3-1.3c0.4-0.3,0.9-0.4,1.4-0.5c3.8-1.6,7.6-3.2,11.5-4.9h0.4c5.6-2.5,11.2-5.2,16.7-8
		c178-99.4,267.9-433.6,547.3-932.7L2258.1,700.2L2258.1,700.2L2258.1,700.2z"/>
	<path class="st27" d="M713,722.2c0.4,0,0.8,0,1.3,0.3c1.1,0,2.2,0,3.2,0.4h1.1c2,0.3,3.9,0.5,5.9,0.8c0.4,0,0.7,0,1,0.3
		c1.6,0.3,3.3,0.6,5,0.8c0.4,0,0.8,0.3,1.2,0.3c3.8,0.8,7.8,1.6,11.5,2.5c0.4,0,0.7,0.3,1,0.3c1.6,0.4,3,0.9,4.6,1.3
		c0.5,0,0.8,0.3,1.3,0.4c1.9,0.5,3.6,1,5.5,1.6c0.1,0,0.2,0,0.4,0.3c1.6,0.5,3.2,1.1,4.8,1.6c0.7,0.3,1.2,0.4,1.8,0.6
		c1.1,0.5,2.4,1,3.4,1.4c0.6,0,1.3,0.4,2,0.7c1.5,0.7,3,1.3,4.6,1.9c0.8,0.3,1.5,0.7,2.2,1c0.9,0.4,1.8,0.9,2.7,1.2
		c0.8,0.4,1.7,0.8,2.4,1.2c0.8,0.5,1.6,0.8,2.4,1.2c19.8,9.7,38.1,22.7,55,38.5c6-6.4,12.6-12.3,19.5-17.7
		c-36.9-26.2-78.8-41.2-127.1-41.2c-5.6,0-11.2,0.3-16.9,0.7"/>
	<path class="st28" d="M837.4,780.3c10.6,9.9,20.5,20.6,29.6,32c8.9-6.2,17.9-12.3,27.1-18.1c-11.5-11.6-24-22.1-37.3-31.6
		C850,768,843.5,773.9,837.4,780.3"/>
	
		<linearGradient id="SVGID_16_" gradientUnits="userSpaceOnUse" x1="1702.7788" y1="42.7131" x2="1703.4902" y2="40.459" gradientTransform="matrix(316.9922 0 0 -41.5039 -539023.1875 2449.9978)">
		<stop  offset="0" style="stop-color:#97D6EE"/>
		<stop  offset="0.7033" style="stop-color:#55C1EA"/>
		<stop  offset="1" style="stop-color:#55C1EA"/>
	</linearGradient>
	<path class="st29" d="M713,722.2c5.7-0.5,11.3-0.7,16.9-0.7c48.3,0,90.1,14.9,127.1,41.1c39-30.8,86.1-41.5,151.6-41.5h-317
		C698.8,721.1,705.9,721.5,713,722.2"/>
	
		<linearGradient id="SVGID_17_" gradientUnits="userSpaceOnUse" x1="1701.4624" y1="29.4091" x2="1702.1511" y2="30.5136" gradientTransform="matrix(258.5156 0 0 -73.0859 -438979.6875 2938.9058)">
		<stop  offset="0" style="stop-color:#7ACCEC"/>
		<stop  offset="1" style="stop-color:#3FB7ED"/>
	</linearGradient>
	<path class="st30" d="M1008.5,721.1c-65.5,0-112.6,10.7-151.6,41.5c13.3,9.5,25.7,20,37.2,31.6c54.3-34.5,108-57.4,161-67.3
		c19.9-3.8,40-5.7,60.3-5.8L1008.5,721.1L1008.5,721.1z"/>
	
		<linearGradient id="SVGID_18_" gradientUnits="userSpaceOnUse" x1="1705.1396" y1="13.1662" x2="1705.1396" y2="14.3822" gradientTransform="matrix(508.2521 0 0 787.4512 -864780.1875 -9616.1182)">
		<stop  offset="0" style="stop-color:#1DA7E7"/>
		<stop  offset="1" style="stop-color:#37ABE7;stop-opacity:0"/>
	</linearGradient>
	<path class="st31" d="M1785.5,1279.9c28.2-86.8,60.4-192.2,100.4-320.1c36-115.2,99.8-201.3,219.6-238.9c3.2-6.4,6.2-13.1,9.2-19.6
		c-195.3,11.7-286.5,111-332.4,258.1c-80.3,256.8-129,423.3-175.8,529.3C1666.2,1431.7,1726,1361.5,1785.5,1279.9"/>
	<path d="M2071.9,1595.7h-22.1v68.8h-9v-68.8h-22.2v-8.2h53.4L2071.9,1595.7L2071.9,1595.7z M2162.5,1664.5h-9v-51.7
		c0-4.1,0.3-9.1,0.7-14.9c-0.9,3.5-1.7,6-2.4,7.5l-26.2,59.1h-4.4l-26.3-58.7c-0.8-1.6-1.5-4.3-2.4-7.9h-0.3
		c0.3,3.1,0.4,8.1,0.4,15.1v51.6h-8.6v-77h11.9l23.6,53.7c1.8,4,2.9,7.1,3.5,9.2h0.3c1.6-4.2,2.9-7.4,3.7-9.5l24.1-53.5h11.3
		L2162.5,1664.5L2162.5,1664.5L2162.5,1664.5z"/>
</g>
</svg>
