<?xml version="1.0" encoding="utf-8"?>
<!-- Generator: Adobe Illustrator 23.0.1, SVG Export Plug-In . SVG Version: 6.00 Build 0)  -->
<svg version="1.1" id="Layer_1" xmlns="http://www.w3.org/2000/svg" xmlns:xlink="http://www.w3.org/1999/xlink" x="0px" y="0px"
	 viewBox="0 0 128 128" style="enable-background:new 0 0 128 128;" xml:space="preserve">
<style type="text/css">
	.st0{fill:#0074BD;}
	.st1{fill:#EA2D2E;}
</style>
<path class="st0" d="M47.6,98.1c0,0-4.8,2.8,3.4,3.7c9.9,1.1,14.9,1,25.8-1.1c0,0,2.9,1.8,6.9,3.4C59.3,114.6,28.4,103.5,47.6,98.1z
	 M44.6,84.5c0,0-5.3,4,2.8,4.8c10.6,1.1,18.9,1.2,33.4-1.6c0,0,2,2,5.1,3.1C56.4,99.4,23.5,91.5,44.6,84.5z"/>
<path class="st1" d="M69.8,61.3c6,6.9-1.6,13.2-1.6,13.2s15.3-7.9,8.3-17.8c-6.6-9.2-11.6-13.8,15.6-29.6
	C92.1,27.1,49.4,37.8,69.8,61.3z"/>
<path class="st0" d="M102.1,108.2c0,0,3.5,2.9-3.9,5.2c-14.1,4.3-58.7,5.6-71.1,0.2c-4.5-1.9,3.9-4.6,6.5-5.2
	c2.7-0.6,4.3-0.5,4.3-0.5c-5-3.5-32,6.8-13.7,9.8C74,125.8,115,114.1,102.1,108.2z M49.9,70.3c0,0-22.7,5.4-8,7.3
	c6.2,0.8,18.5,0.6,30-0.3c9.4-0.8,18.8-2.5,18.8-2.5s-3.3,1.4-5.7,3.1c-23,6.1-67.5,3.2-54.7-3C41.1,69.7,49.9,70.3,49.9,70.3z
	 M90.6,93c23.4-12.2,12.6-23.9,5-22.3c-1.8,0.4-2.7,0.7-2.7,0.7s0.7-1.1,2-1.5c15-5.3,26.5,15.5-4.8,23.7
	C90.1,93.7,90.5,93.3,90.6,93z"/>
<path class="st1" d="M76.5,1.6c0,0,13,13-12.3,32.9c-20.3,16-4.6,25.1,0,35.6C52.3,59.4,43.7,50,49.5,41.3
	C58,28.4,81.7,22.2,76.5,1.6z"/>
<path class="st0" d="M52.2,126c22.5,1.4,57-0.8,57.8-11.4c0,0-1.6,4-18.6,7.2c-19.2,3.6-42.9,3.2-56.9,0.9
	C34.6,122.7,37.4,125.1,52.2,126z"/>
</svg>
