<?xml version="1.0" encoding="utf-8"?>
<!-- Generator: Adobe Illustrator 23.0.1, SVG Export Plug-In . SVG Version: 6.00 Build 0)  -->
<svg version="1.1" id="Layer_1" xmlns="http://www.w3.org/2000/svg" xmlns:xlink="http://www.w3.org/1999/xlink" x="0px" y="0px"
	 viewBox="0 0 128 128" style="enable-background:new 0 0 128 128;" xml:space="preserve">
<style type="text/css">
	.st0{fill:#3776A9;}
	.st1{fill:#FFD249;}
</style>
<path class="st0" d="M49.3,62h29.2C86.6,62,93,55.1,93,47V19.2C93,11.3,86.4,5.3,78.4,4c-5-0.8-10.2-1.2-15.2-1.2
	c-5,0-9.6,0.4-13.8,1.2C37.1,6.2,35,10.8,35,19.2V30h29v4H23.8c-8.5,0-15.9,5.1-18.2,14.8c-2.7,11.1-2.8,17.9,0,29.5
	C7.6,87,12.6,93,21.1,93H31V80C31,70.3,39.4,62,49.3,62z M47.5,22.9c-3,0-5.5-2.5-5.5-5.5c0-3.1,2.5-5.6,5.5-5.6
	c3,0,5.5,2.5,5.5,5.6C53,20.4,50.5,22.9,47.5,22.9z"/>
<path class="st1" d="M122.3,48.8c-2.1-8.4-6.1-14.8-14.6-14.8H97v13c0,10-8.8,18-18.5,18H49.3c-8,0-14.3,7.3-14.3,15.3v27.8
	c0,7.9,6.7,12.6,14.5,14.8c9.2,2.7,18,3.2,29.1,0c7.3-2.1,14.5-6.4,14.5-14.8V97H64v-4h43.7c8.5,0,11.6-5.8,14.6-14.7
	C125.3,69.2,125.2,60.5,122.3,48.8L122.3,48.8z M80.3,104.4c3,0,5.5,2.5,5.5,5.5c0,3.1-2.5,5.6-5.5,5.6c-3,0-5.5-2.5-5.5-5.6
	C74.8,106.9,77.3,104.4,80.3,104.4z"/>
</svg>
